<svg xmlns="http://www.w3.org/2000/svg" version="1.1" xmlns:xlink="http://www.w3.org/1999/xlink" xmlns:svgjs="http://svgjs.dev/svgjs" width="1500" height="935" viewBox="0 0 1500 935"><g transform="matrix(1,0,0,1,-0.9090909090909918,0.3785425101214628)"><svg viewBox="0 0 396 247" data-background-color="#000000" preserveAspectRatio="xMidYMid meet" height="935" width="1500" xmlns="http://www.w3.org/2000/svg" xmlns:xlink="http://www.w3.org/1999/xlink"><g id="tight-bounds" transform="matrix(1,0,0,1,0.2400000000000091,-0.09999999999999432)"><svg viewBox="0 0 395.52 247.2" height="247.2" width="395.52"><g><svg></svg></g><g><svg viewBox="0 0 395.52 247.2" height="247.2" width="395.52"><mask id="77e41727-b36a-425e-a639-c7c837a983f4"><rect width="640" height="400" fill="white"></rect><g transform="matrix(1,0,0,1,89.21680040913107,37.08000000000001)"><svg viewBox="0 0 217.08639918173785 173.03999999999996" height="173.03999999999996" width="217.08639918173785"><g><svg viewBox="0 0 217.08639918173785 173.03999999999996" height="173.03999999999996" width="217.08639918173785"><g><svg viewBox="0 0 217.08639918173785 173.03999999999996" height="173.03999999999996" width="217.08639918173785"><g><svg viewBox="0 0 217.08639918173785 173.03999999999996" height="173.03999999999996" width="217.08639918173785"><g id="SvgjsG2616"><svg viewBox="0 0 217.08639918173785 173.03999999999996" height="173.03999999999996" width="217.08639918173785" id="SvgjsSvg2615"><g><svg viewBox="0 0 217.08639918173785 173.03999999999996" height="173.03999999999996" width="217.08639918173785"><g transform="matrix(1,0,0,1,0,0)"><svg width="217.08639918173785" viewBox="0 -39.01 53.7 43.01" height="173.03999999999996" data-palette-color="url(#15eb890a-ac11-4f43-897d-e7c157201c59)"><path d="M25 0L21.09 0 7.91-17.5 21.09-35.01 25-35.01 11.55-17.5 25 0ZM7.15 0L4 0 4-35.01 7.15-35.01 7.15 0ZM49.7 0L46.56 0 46.56-15.99 33.15-15.99 33.15 0 30 0 30-35.01 33.15-35.01 33.15-18.99 46.56-18.99 46.56-35.01 49.7-35.01 49.7 0Z" opacity="1" transform="matrix(1,0,0,1,0,0)" fill="black" class="wordmark-text-0" id="SvgjsPath2614" stroke-width="7" stroke="black" stroke-linejoin="round"></path></svg></g></svg></g></svg></g></svg></g></svg></g></svg></g></svg></g></mask><g transform="matrix(1,0,0,1,89.21680040913107,37.08000000000001)"><svg viewBox="0 0 217.08639918173785 173.03999999999996" height="173.03999999999996" width="217.08639918173785"><g><svg viewBox="0 0 217.08639918173785 173.03999999999996" height="173.03999999999996" width="217.08639918173785"><g><svg viewBox="0 0 217.08639918173785 173.03999999999996" height="173.03999999999996" width="217.08639918173785"><g><svg viewBox="0 0 217.08639918173785 173.03999999999996" height="173.03999999999996" width="217.08639918173785"><g id="textblocktransform"><svg viewBox="0 0 217.08639918173785 173.03999999999996" height="173.03999999999996" width="217.08639918173785" id="textblock"><g><svg viewBox="0 0 217.08639918173785 173.03999999999996" height="173.03999999999996" width="217.08639918173785"><g transform="matrix(1,0,0,1,0,0)"><svg width="217.08639918173785" viewBox="0 -39.01 53.7 43.01" height="173.03999999999996" data-palette-color="url(#15eb890a-ac11-4f43-897d-e7c157201c59)"></svg></g></svg></g></svg></g></svg></g></svg></g></svg></g></svg></g><g mask="url(#77e41727-b36a-425e-a639-c7c837a983f4)"><g transform="matrix(3.478014183237571, 0, 0, 3.478014183237571, 69.07347522020987, 1)"><svg xmlns="http://www.w3.org/2000/svg" viewBox="13 12.49999997649485 74 70.50000002350515" x="0" y="0" height="70.50000002350515" width="74" class="icon-none" id="none"></svg></g></g></svg></g><defs></defs><mask id="4732fcc5-538d-4e28-b284-6cd7661f8cdb"><g id="SvgjsG2626"><svg viewBox="0 0 395.52 247.2" height="247.2" width="395.52"><g><svg></svg></g><g><svg viewBox="0 0 395.52 247.2" height="247.2" width="395.52"><mask id="SvgjsMask2625"><rect width="640" height="400" fill="black"></rect><g transform="matrix(1,0,0,1,89.21680040913107,37.08000000000001)"><svg viewBox="0 0 217.08639918173785 173.03999999999996" height="173.03999999999996" width="217.08639918173785"><g><svg viewBox="0 0 217.08639918173785 173.03999999999996" height="173.03999999999996" width="217.08639918173785"><g><svg viewBox="0 0 217.08639918173785 173.03999999999996" height="173.03999999999996" width="217.08639918173785"><g><svg viewBox="0 0 217.08639918173785 173.03999999999996" height="173.03999999999996" width="217.08639918173785"><g id="SvgjsG2624"><svg viewBox="0 0 217.08639918173785 173.03999999999996" height="173.03999999999996" width="217.08639918173785" id="SvgjsSvg2623"><g><svg viewBox="0 0 217.08639918173785 173.03999999999996" height="173.03999999999996" width="217.08639918173785"><g transform="matrix(1,0,0,1,0,0)"><svg width="217.08639918173785" viewBox="0 -39.01 53.7 43.01" height="173.03999999999996" data-palette-color="url(#15eb890a-ac11-4f43-897d-e7c157201c59)"><path d="M25 0L21.09 0 7.91-17.5 21.09-35.01 25-35.01 11.55-17.5 25 0ZM7.15 0L4 0 4-35.01 7.15-35.01 7.15 0ZM49.7 0L46.56 0 46.56-15.99 33.15-15.99 33.15 0 30 0 30-35.01 33.15-35.01 33.15-18.99 46.56-18.99 46.56-35.01 49.7-35.01 49.7 0Z" opacity="1" transform="matrix(1,0,0,1,0,0)" fill="black" class="wordmark-text-0" id="SvgjsPath2622" stroke-width="7" stroke="black" stroke-linejoin="round"></path></svg></g></svg></g></svg></g></svg></g></svg></g></svg></g></svg></g></mask><g transform="matrix(1,0,0,1,89.21680040913107,37.08000000000001)"><svg viewBox="0 0 217.08639918173785 173.03999999999996" height="173.03999999999996" width="217.08639918173785"><g><svg viewBox="0 0 217.08639918173785 173.03999999999996" height="173.03999999999996" width="217.08639918173785"><g><svg viewBox="0 0 217.08639918173785 173.03999999999996" height="173.03999999999996" width="217.08639918173785"><g><svg viewBox="0 0 217.08639918173785 173.03999999999996" height="173.03999999999996" width="217.08639918173785"><g id="SvgjsG2621"><svg viewBox="0 0 217.08639918173785 173.03999999999996" height="173.03999999999996" width="217.08639918173785" id="SvgjsSvg2620"><g><svg viewBox="0 0 217.08639918173785 173.03999999999996" height="173.03999999999996" width="217.08639918173785"><g transform="matrix(1,0,0,1,0,0)"><svg width="217.08639918173785" viewBox="0 -39.01 53.7 43.01" height="173.03999999999996" data-palette-color="url(#15eb890a-ac11-4f43-897d-e7c157201c59)"><path d="M25 0L21.09 0 7.91-17.5 21.09-35.01 25-35.01 11.55-17.5 25 0ZM7.15 0L4 0 4-35.01 7.15-35.01 7.15 0ZM49.7 0L46.56 0 46.56-15.99 33.15-15.99 33.15 0 30 0 30-35.01 33.15-35.01 33.15-18.99 46.56-18.99 46.56-35.01 49.7-35.01 49.7 0Z" opacity="1" transform="matrix(1,0,0,1,0,0)" fill="white" class="wordmark-text-0" id="SvgjsPath2619"></path></svg></g></svg></g></svg></g></svg></g></svg></g></svg></g></svg></g><g mask="url(#77e41727-b36a-425e-a639-c7c837a983f4)"><g transform="matrix(3.478014183237571, 0, 0, 3.478014183237571, 69.07347522020987, 1)"><svg xmlns="http://www.w3.org/2000/svg" viewBox="13 12.49999997649485 74 70.50000002350515" x="0" y="0" height="70.50000002350515" width="74" class="icon-none" id="SvgjsSvg2618"><path d="M65.586 61.414A2 2 0 0 0 62.757 64.243L64.172 65.657 62.758 67.07A2 2 0 1 0 65.586 69.9L67 68.485 68.414 69.9A2 2 0 0 0 71.243 67.07L69.829 65.657 71.243 64.243A2 2 0 0 0 68.414 61.414L67 62.828z" fill="black"></path><path d="M28.414 61.414A2 2 0 0 1 31.243 61.414L32.657 62.828 34.07 61.415A2 2 0 0 1 36.9 64.243L35.485 65.657 36.9 67.07A2 2 0 1 1 34.071 69.9L32.657 68.485 31.243 69.9A2 2 0 1 1 28.414 67.07L29.828 65.657 28.414 64.243A2 2 0 0 1 28.414 61.414" fill="black"></path><path fill-rule="evenodd" clip-rule="evenodd" d="M55 73A5 5 0 1 1 45 73 5 5 0 0 1 55 73M52 73A2 2 0 1 1 48 73 2 2 0 0 1 52 73" fill="black"></path><path d="M27 53H37A2 2 0 0 1 39 55V57H29A2 2 0 0 1 27 55z" fill="black"></path><path d="M63 53A2 2 0 0 0 61 55V57H71A2 2 0 0 0 73 55V53z" fill="black"></path><path fill-rule="evenodd" clip-rule="evenodd" d="M52.208 17H74C80.627 17 86 22.373 86 29V51H83V61L84.515 60.621A2 2 0 0 1 87 62.561V67.439A2 2 0 0 1 84.515 69.378L83 69V71C83 77.627 77.627 83 71 83H29C22.373 83 17 77.627 17 71V69L15.485 69.379A2 2 0 0 1 13 67.439V62.561A2 2 0 0 1 15.485 60.622L17 61V51H14V29C14 22.373 19.373 17 26 17H47.792A2.5 2.5 0 0 0 45.5 15.5 1.5 1.5 0 0 1 45.5 12.5C47.36 12.5 49.005 13.423 50 14.837A5.5 5.5 0 0 1 54.5 12.5 1.5 1.5 0 0 1 54.5 15.5 2.5 2.5 0 0 0 52.208 17M79 51H21V71A8 8 0 0 0 29 79H71A8 8 0 0 0 79 71z" fill="black"></path></svg></g></g></svg></g><defs><mask></mask></defs></svg><rect width="395.52" height="247.2" fill="black" stroke="none" visibility="hidden"></rect></g></mask><linearGradient x1="0.054" x2="0.941" y1="0.5" y2="0.5" id="15eb890a-ac11-4f43-897d-e7c157201c59"><stop stop-color="#0f3054" offset="0"></stop><stop stop-color="#3b8dcb" offset="0.498"></stop><stop stop-color="#0f3054" offset="1"></stop></linearGradient><rect width="395.52" height="247.2" fill="url(#15eb890a-ac11-4f43-897d-e7c157201c59)" mask="url(#4732fcc5-538d-4e28-b284-6cd7661f8cdb)" data-fill-palette-color="primary"></rect><mask id="9fb1d237-d075-4e93-9491-a7be3fbae9d6"><g id="SvgjsG2661"><svg viewBox="0 0 395.52 247.2" height="247.2" width="395.52"><g><svg></svg></g><g><svg viewBox="0 0 395.52 247.2" height="247.2" width="395.52"><mask id="SvgjsMask2660"><rect width="640" height="400" fill="black"></rect><g transform="matrix(1,0,0,1,89.21680040913107,37.08000000000001)"><svg viewBox="0 0 217.08639918173785 173.03999999999996" height="173.03999999999996" width="217.08639918173785"><g><svg viewBox="0 0 217.08639918173785 173.03999999999996" height="173.03999999999996" width="217.08639918173785"><g><svg viewBox="0 0 217.08639918173785 173.03999999999996" height="173.03999999999996" width="217.08639918173785"><g><svg viewBox="0 0 217.08639918173785 173.03999999999996" height="173.03999999999996" width="217.08639918173785"><g id="SvgjsG2659"><svg viewBox="0 0 217.08639918173785 173.03999999999996" height="173.03999999999996" width="217.08639918173785" id="SvgjsSvg2658"><g><svg viewBox="0 0 217.08639918173785 173.03999999999996" height="173.03999999999996" width="217.08639918173785"><g transform="matrix(1,0,0,1,0,0)"><svg width="217.08639918173785" viewBox="0 -39.01 53.7 43.01" height="173.03999999999996" data-palette-color="url(#15eb890a-ac11-4f43-897d-e7c157201c59)"><path d="M25 0L21.09 0 7.91-17.5 21.09-35.01 25-35.01 11.55-17.5 25 0ZM7.15 0L4 0 4-35.01 7.15-35.01 7.15 0ZM49.7 0L46.56 0 46.56-15.99 33.15-15.99 33.15 0 30 0 30-35.01 33.15-35.01 33.15-18.99 46.56-18.99 46.56-35.01 49.7-35.01 49.7 0Z" opacity="1" transform="matrix(1,0,0,1,0,0)" fill="black" class="wordmark-text-0" id="SvgjsPath2657" stroke-width="7" stroke="black" stroke-linejoin="round"></path></svg></g></svg></g></svg></g></svg></g></svg></g></svg></g></svg></g></mask><g transform="matrix(1,0,0,1,89.21680040913107,37.08000000000001)"><svg viewBox="0 0 217.08639918173785 173.03999999999996" height="173.03999999999996" width="217.08639918173785"><g><svg viewBox="0 0 217.08639918173785 173.03999999999996" height="173.03999999999996" width="217.08639918173785"><g><svg viewBox="0 0 217.08639918173785 173.03999999999996" height="173.03999999999996" width="217.08639918173785"><g><svg viewBox="0 0 217.08639918173785 173.03999999999996" height="173.03999999999996" width="217.08639918173785"><g id="SvgjsG2656"><svg viewBox="0 0 217.08639918173785 173.03999999999996" height="173.03999999999996" width="217.08639918173785" id="SvgjsSvg2655"><g><svg viewBox="0 0 217.08639918173785 173.03999999999996" height="173.03999999999996" width="217.08639918173785"><g transform="matrix(1,0,0,1,0,0)"><svg width="217.08639918173785" viewBox="0 -39.01 53.7 43.01" height="173.03999999999996" data-palette-color="url(#15eb890a-ac11-4f43-897d-e7c157201c59)"></svg></g></svg></g></svg></g></svg></g></svg></g></svg></g></svg></g><g mask="url(#77e41727-b36a-425e-a639-c7c837a983f4)"><g transform="matrix(3.478014183237571, 0, 0, 3.478014183237571, 69.07347522020987, 1)"><svg xmlns="http://www.w3.org/2000/svg" viewBox="13 12.49999997649485 74 70.50000002350515" x="0" y="0" height="70.50000002350515" width="74" class="icon-none" id="SvgjsSvg2654"><path d="M65.586 61.414A2 2 0 0 0 62.757 64.243L64.172 65.657 62.758 67.07A2 2 0 1 0 65.586 69.9L67 68.485 68.414 69.9A2 2 0 0 0 71.243 67.07L69.829 65.657 71.243 64.243A2 2 0 0 0 68.414 61.414L67 62.828z" fill="white"></path><path d="M28.414 61.414A2 2 0 0 1 31.243 61.414L32.657 62.828 34.07 61.415A2 2 0 0 1 36.9 64.243L35.485 65.657 36.9 67.07A2 2 0 1 1 34.071 69.9L32.657 68.485 31.243 69.9A2 2 0 1 1 28.414 67.07L29.828 65.657 28.414 64.243A2 2 0 0 1 28.414 61.414" fill="white"></path><path fill-rule="evenodd" clip-rule="evenodd" d="M55 73A5 5 0 1 1 45 73 5 5 0 0 1 55 73M52 73A2 2 0 1 1 48 73 2 2 0 0 1 52 73" fill="white"></path><path d="M27 53H37A2 2 0 0 1 39 55V57H29A2 2 0 0 1 27 55z" fill="white"></path><path d="M63 53A2 2 0 0 0 61 55V57H71A2 2 0 0 0 73 55V53z" fill="white"></path><path fill-rule="evenodd" clip-rule="evenodd" d="M52.208 17H74C80.627 17 86 22.373 86 29V51H83V61L84.515 60.621A2 2 0 0 1 87 62.561V67.439A2 2 0 0 1 84.515 69.378L83 69V71C83 77.627 77.627 83 71 83H29C22.373 83 17 77.627 17 71V69L15.485 69.379A2 2 0 0 1 13 67.439V62.561A2 2 0 0 1 15.485 60.622L17 61V51H14V29C14 22.373 19.373 17 26 17H47.792A2.5 2.5 0 0 0 45.5 15.5 1.5 1.5 0 0 1 45.5 12.5C47.36 12.5 49.005 13.423 50 14.837A5.5 5.5 0 0 1 54.5 12.5 1.5 1.5 0 0 1 54.5 15.5 2.5 2.5 0 0 0 52.208 17M79 51H21V71A8 8 0 0 0 29 79H71A8 8 0 0 0 79 71z" fill="white"></path></svg></g></g></svg></g><defs><mask></mask></defs><mask><g id="SvgjsG2653"><svg viewBox="0 0 395.52 247.2" height="247.2" width="395.52"><g><svg></svg></g><g><svg viewBox="0 0 395.52 247.2" height="247.2" width="395.52"><mask id="SvgjsMask2652"><rect width="640" height="400" fill="black"></rect><g transform="matrix(1,0,0,1,89.21680040913107,37.08000000000001)"><svg viewBox="0 0 217.08639918173785 173.03999999999996" height="173.03999999999996" width="217.08639918173785"><g><svg viewBox="0 0 217.08639918173785 173.03999999999996" height="173.03999999999996" width="217.08639918173785"><g><svg viewBox="0 0 217.08639918173785 173.03999999999996" height="173.03999999999996" width="217.08639918173785"><g><svg viewBox="0 0 217.08639918173785 173.03999999999996" height="173.03999999999996" width="217.08639918173785"><g id="SvgjsG2651"><svg viewBox="0 0 217.08639918173785 173.03999999999996" height="173.03999999999996" width="217.08639918173785" id="SvgjsSvg2650"><g><svg viewBox="0 0 217.08639918173785 173.03999999999996" height="173.03999999999996" width="217.08639918173785"><g transform="matrix(1,0,0,1,0,0)"><svg width="217.08639918173785" viewBox="0 -39.01 53.7 43.01" height="173.03999999999996" data-palette-color="url(#15eb890a-ac11-4f43-897d-e7c157201c59)"><path d="M25 0L21.09 0 7.91-17.5 21.09-35.01 25-35.01 11.55-17.5 25 0ZM7.15 0L4 0 4-35.01 7.15-35.01 7.15 0ZM49.7 0L46.56 0 46.56-15.99 33.15-15.99 33.15 0 30 0 30-35.01 33.15-35.01 33.15-18.99 46.56-18.99 46.56-35.01 49.7-35.01 49.7 0Z" opacity="1" transform="matrix(1,0,0,1,0,0)" fill="black" class="wordmark-text-0" id="SvgjsPath2649" stroke-width="7" stroke="black" stroke-linejoin="round"></path></svg></g></svg></g></svg></g></svg></g></svg></g></svg></g></svg></g></mask><g transform="matrix(1,0,0,1,89.21680040913107,37.08000000000001)"><svg viewBox="0 0 217.08639918173785 173.03999999999996" height="173.03999999999996" width="217.08639918173785"><g><svg viewBox="0 0 217.08639918173785 173.03999999999996" height="173.03999999999996" width="217.08639918173785"><g><svg viewBox="0 0 217.08639918173785 173.03999999999996" height="173.03999999999996" width="217.08639918173785"><g><svg viewBox="0 0 217.08639918173785 173.03999999999996" height="173.03999999999996" width="217.08639918173785"><g id="SvgjsG2648"><svg viewBox="0 0 217.08639918173785 173.03999999999996" height="173.03999999999996" width="217.08639918173785" id="SvgjsSvg2647"><g><svg viewBox="0 0 217.08639918173785 173.03999999999996" height="173.03999999999996" width="217.08639918173785"><g transform="matrix(1,0,0,1,0,0)"><svg width="217.08639918173785" viewBox="0 -39.01 53.7 43.01" height="173.03999999999996" data-palette-color="url(#15eb890a-ac11-4f43-897d-e7c157201c59)"><path d="M25 0L21.09 0 7.91-17.5 21.09-35.01 25-35.01 11.55-17.5 25 0ZM7.15 0L4 0 4-35.01 7.15-35.01 7.15 0ZM49.7 0L46.56 0 46.56-15.99 33.15-15.99 33.15 0 30 0 30-35.01 33.15-35.01 33.15-18.99 46.56-18.99 46.56-35.01 49.7-35.01 49.7 0Z" opacity="1" transform="matrix(1,0,0,1,0,0)" fill="black" class="wordmark-text-0" id="SvgjsPath2646"></path></svg></g></svg></g></svg></g></svg></g></svg></g></svg></g></svg></g><g mask="url(#77e41727-b36a-425e-a639-c7c837a983f4)"><g transform="matrix(3.478014183237571, 0, 0, 3.478014183237571, 69.07347522020987, 1)"><svg xmlns="http://www.w3.org/2000/svg" viewBox="13 12.49999997649485 74 70.50000002350515" x="0" y="0" height="70.50000002350515" width="74" class="icon-none" id="SvgjsSvg2645"><path d="M65.586 61.414A2 2 0 0 0 62.757 64.243L64.172 65.657 62.758 67.07A2 2 0 1 0 65.586 69.9L67 68.485 68.414 69.9A2 2 0 0 0 71.243 67.07L69.829 65.657 71.243 64.243A2 2 0 0 0 68.414 61.414L67 62.828z" fill="black"></path><path d="M28.414 61.414A2 2 0 0 1 31.243 61.414L32.657 62.828 34.07 61.415A2 2 0 0 1 36.9 64.243L35.485 65.657 36.9 67.07A2 2 0 1 1 34.071 69.9L32.657 68.485 31.243 69.9A2 2 0 1 1 28.414 67.07L29.828 65.657 28.414 64.243A2 2 0 0 1 28.414 61.414" fill="black"></path><path fill-rule="evenodd" clip-rule="evenodd" d="M55 73A5 5 0 1 1 45 73 5 5 0 0 1 55 73M52 73A2 2 0 1 1 48 73 2 2 0 0 1 52 73" fill="black"></path><path d="M27 53H37A2 2 0 0 1 39 55V57H29A2 2 0 0 1 27 55z" fill="black"></path><path d="M63 53A2 2 0 0 0 61 55V57H71A2 2 0 0 0 73 55V53z" fill="black"></path><path fill-rule="evenodd" clip-rule="evenodd" d="M52.208 17H74C80.627 17 86 22.373 86 29V51H83V61L84.515 60.621A2 2 0 0 1 87 62.561V67.439A2 2 0 0 1 84.515 69.378L83 69V71C83 77.627 77.627 83 71 83H29C22.373 83 17 77.627 17 71V69L15.485 69.379A2 2 0 0 1 13 67.439V62.561A2 2 0 0 1 15.485 60.622L17 61V51H14V29C14 22.373 19.373 17 26 17H47.792A2.5 2.5 0 0 0 45.5 15.5 1.5 1.5 0 0 1 45.5 12.5C47.36 12.5 49.005 13.423 50 14.837A5.5 5.5 0 0 1 54.5 12.5 1.5 1.5 0 0 1 54.5 15.5 2.5 2.5 0 0 0 52.208 17M79 51H21V71A8 8 0 0 0 29 79H71A8 8 0 0 0 79 71z" fill="black"></path></svg></g></g></svg></g><defs><mask></mask></defs></svg><rect width="395.52" height="247.2" fill="black" stroke="none" visibility="hidden"></rect></g></mask></svg><rect width="395.52" height="247.2" fill="black" stroke="none" visibility="hidden"></rect></g></mask><linearGradient x1="0.054" x2="0.941" y1="0.5" y2="0.5" id="c2df0d5e-12c0-41f6-bfe2-f5b04f075b31"><stop stop-color="#0f3054" offset="0"></stop><stop stop-color="#3b8dcb" offset="0.498"></stop><stop stop-color="#0f3054" offset="1"></stop></linearGradient><rect width="395.52" height="247.2" fill="url(#c2df0d5e-12c0-41f6-bfe2-f5b04f075b31)" mask="url(#9fb1d237-d075-4e93-9491-a7be3fbae9d6)" data-fill-palette-color="accent"></rect></svg><rect width="395.52" height="247.2" fill="none" stroke="none" visibility="hidden"></rect></g></svg></g></svg>